# xmcd
#
# Track frame offsets: 
#        150
#        22979
#        41889
#        69480
#        92265
#        114184
#        136007
#        157640
#        176793
#        197757
#        221447
#        245429
#        279533
#        299630
#        331935
#
# Disc length: 4676 seconds
#
# Revision: 0
# Processed by: cddbd v1.5.2PL0 Copyright (c) Steve Scherf et al.
# Submitted via: ExactAudioCopy v1.3
#
DISCID=cd12420f
DTITLE=Courtney Scaife - We Need Love on the Rise
DYEAR=2019
DGENRE=Blues
TTITLE0=I'm a Seasoned Man
TTITLE1=My Good out Weigh My Bad
TTITLE2=Arkansas Boy
TTITLE3=We Need Love on the Rise (Remix)
TTITLE4=I've Been Hurt
TTITLE5=I'm the Real Blues Man
TTITLE6=If Blues Is Your Thing
TTITLE7=Don't Bother My Girl
TTITLE8=Duck Shake
TTITLE9=Feeling Low
TTITLE10=We Need Love on the Rise
TTITLE11=Step Dog
TTITLE12=I Met the King
TTITLE13=If I Smile at You
TTITLE14=Finger Tip Blues
EXTD=
EXTT0=
EXTT1=
EXTT2=
EXTT3=
EXTT4=
EXTT5=
EXTT6=
EXTT7=
EXTT8=
EXTT9=
EXTT10=
EXTT11=
EXTT12=
EXTT13=
EXTT14=
PLAYORDER=
